<?xml version="1.0" encoding="utf-8"?>
<!-- Svg Vector Icons : http://www.onlinewebfonts.com/icon -->
<!DOCTYPE svg PUBLIC "-//W3C//DTD SVG 1.1//EN" "http://www.w3.org/Graphics/SVG/1.1/DTD/svg11.dtd">
<svg version="1.1" xmlns="http://www.w3.org/2000/svg" xmlns:xlink="http://www.w3.org/1999/xlink" x="0px" y="0px" viewBox="0 0 1000 1000" enable-background="new 0 0 1000 1000" xml:space="preserve">
<metadata> Svg Vector Icons : http://www.onlinewebfonts.com/icon </metadata>
<g><g transform="translate(0.000000,511.000000) scale(0.100000,-0.100000)"><path d="M886.6,4951l-59-59V2398.7c0-2489.2,0-2491.2,42.7-2546.2l40.7-52.9H2751c1778.9,0,1839.9,2,1884.7,38.7l48.8,38.7l6.1,1502.1l4.1,1500l199.5-12.2c232-16.3,388.8-55,584.1-144.5c382.6-179.1,679.8-535.3,771.4-928.1c32.6-130.3,42.7-496.6,20.4-584.1c-12.2-44.8-16.3-42.7-105.8,34.6c-48.9,44.8-107.9,81.4-128.2,81.4c-95.7,0-181.2-83.5-181.2-177.1c0-46.8,405-453.9,486.4-488.5c118-50.9,175-20.4,415.2,213.7c219.8,217.8,244.2,258.5,205.6,360.3c-14.3,34.6-109.9,91.6-158.8,91.6c-16.3,0-63.1-26.5-99.7-61.1l-71.2-61.1l-12.2,179.1c-61.1,795.8-366.4,1294.5-970.8,1581.4c-246.3,116-405,154.7-694.1,166.9l-258.5,12.2l-6.1,563.8l-6.1,565.8l-335.8,341.9c-183.2,189.3-352.1,354.1-376.5,368.4c-30.5,18.3-398.9,24.4-1532.6,26.5H945.7L886.6,4951z M3758.5,4419.8c0-354.1-8.1-346,346-346H4369V2089.3V104.9H2761.2H1153.3v2289.7v2289.7h1302.6h1302.6V4419.8z"/><path d="M5354.2,367.5c-36.7-40.7-38.7-99.7-44.8-1506.1l-4.1-1461.4l-73.3-14.2c-40.7-8.1-171-8.1-291.1-2c-637.1,30.5-1174.4,478.3-1318.9,1093c-30.5,140.4-40.7,437.6-16.3,549.5l14.3,65.1l85.5-83.5c118-116,236.1-114,287,6.1c38.7,91.6,10.2,140.4-189.3,344c-203.5,205.6-252.4,238.1-374.5,238.1c-81.4,0-93.6-8.1-317.5-232c-213.7-213.7-232-238.1-219.8-291c18.3-73.3,101.8-148.6,164.9-148.6c26.5,0,81.4,26.5,118,61.1l69.2,59l12.2-197.4c44.8-738.8,372.5-1272.1,960.7-1567.2c274.8-136.4,645.2-205.6,932.2-173l154.7,18.3l6.1-911.8l6.1-909.8l46.8-46.8l46.8-46.8h1831.8h1833.8l48.8,57l48.9,59l-4.1,2185.9l-6.1,2185.9L8806,54l-356.2,356.2H6921.3C5392.8,410.2,5392.8,410.2,5354.2,367.5z M8236.1-157.6c0-362.3-6.1-356.2,344-364.3l266.6-8.1v-1972.2v-1972.2H7238.8H5630.9v2289.7V104.9h1302.6h1302.6V-157.6z"/></g></g>
</svg>